nColumns=19
nRows=101
DataType=double
version=3
OpenSimVersion=4.1
endheader
time	ground_force_1_vx	ground_force_1_vy	ground_force_1_vz	ground_force_1_px	ground_force_1_py	ground_force_1_pz	ground_force_1_mx	ground_force_1_my	ground_force_1_mz	ground_force_2_vx	ground_force_2_vy	ground_force_2_vz	ground_force_2_px	ground_force_2_py	ground_force_2_pz	ground_force_2_mx	ground_force_2_my	ground_force_2_mz
0.61	-4.62864	13.2208	-0.991891	1.40981	0	-0.281782	-0	2.48016	-0	0	0	0	-0.00101459	0	-0.00031029	0	0	0
0.62	-15.287	52.5322	-1.41848	1.37753	0	-0.310384	-0	2.20541	-0	0	0	0	-0.00101459	0	-0.00031029	0	0	0
0.63	-29.3828	159.889	2.05291	1.37285	0	-0.316072	-0	1.32011	-0	0	0	0	-0.00101459	0	-0.00031029	0	0	0
0.64	-30.3912	367.373	12.4437	1.36792	0	-0.315951	-0	0.162777	-0	0	0	0	-0.00101459	0	-0.00031029	0	0	0
0.65	-22.3309	640.316	27.6133	1.35981	0	-0.314368	0	-0.690063	0	0	0	0	-0.00101459	0	-0.00031029	0	0	0
0.66	-36.0124	872.718	37.245	1.35245	0	-0.31283	0	-0.713822	0	0	0	0	-0.00101459	0	-0.00031029	0	0	0
0.67	-77.7133	990.383	31.562	1.34796	0	-0.31205	-0	0.19356	-0	0	0	0	-0.00101459	0	-0.00031029	0	0	0
0.68	-134.456	1036.6	14.6564	1.34426	0	-0.311667	-0	1.54426	-0	0	0	0	-0.00101459	0	-0.00031029	0	0	0
0.69	-191.514	1111.34	0.923128	1.33811	0	-0.310464	-0	2.49156	-0	0	0	0	-0.00101459	0	-0.00031029	0	0	0
0.7	-220.634	1248.21	-1.74696	1.32681	0	-0.309199	-0	2.32079	-0	0	0	0	-0.00101459	0	-0.00031029	0	0	0
0.71	-214.608	1409.3	3.46942	1.30978	0	-0.309277	-0	0.83564	-0	0	0	0	-0.00101459	0	-0.00031029	0	0	0
0.72	-188.837	1554.67	11.1135	1.28899	0	-0.309889	0	-1.59693	0	0	0	0	-0.00101459	0	-0.00031029	0	0	0
0.73	-155.593	1669.86	17.9199	1.2669	0	-0.31018	0	-4.29379	0	0	0	0	-0.00101459	0	-0.00031029	0	0	0
0.74	-120.622	1751.23	22.8476	1.24503	0	-0.310414	0	-6.59156	0	0	0	0	-0.00101459	0	-0.00031029	0	0	0
0.75	-85.9953	1796.49	27.1426	1.22338	0	-0.310691	0	-8.08764	0	0	0	0	-0.00101459	0	-0.00031029	0	0	0
0.76	-51.7602	1804.74	31.8352	1.20193	0	-0.311037	0	-8.70693	0	0	0	0	-0.00101459	0	-0.00031029	0	0	0
0.77	-17.3088	1776.66	36.6549	1.18074	0	-0.311458	0	-8.6249	0	0	0	0	-0.00101459	0	-0.00031029	0	0	0
0.78	17.9446	1716.01	41.1738	1.15939	0	-0.311938	0	-8.12501	0	0	0	0	-0.00101459	0	-0.00031029	0	0	0
0.79	54.4385	1627.4	45.1365	1.13743	0	-0.312605	0	-7.45988	0	0	0	0	-0.00101459	0	-0.00031029	0	0	0
0.8	90.8348	1513.2	48.0111	1.11442	0	-0.313409	0	-6.76448	0	0	0	0	-0.00101459	0	-0.00031029	0	0	0
0.81	125.265	1373.31	48.8597	1.09027	0	-0.314297	0	-6.04276	0	0	0	0	-0.00101459	0	-0.00031029	0	0	0
0.82	152.741	1209.82	47.4649	1.06546	0	-0.315255	0	-5.21743	0	0	0	0	-0.00101459	0	-0.00031029	0	0	0
0.83	167.354	1030.43	44.3077	1.04094	0	-0.316101	0	-4.2068	0	0	0	0	-0.00101459	0	-0.00031029	0	0	0
0.84	168.857	845.865	39.3405	1.01739	0	-0.316772	0	-2.9929	0	0	0	0	-0.00101459	0	-0.00031029	0	0	0
0.85	160.432	667.589	32.7084	0.99463	0	-0.317327	0	-1.65627	0	0	0	0	-0.00101459	0	-0.00031029	0	0	0
0.86	145.233	506.937	25.8401	0.972691	0	-0.317262	0	-0.360476	0	0	0	0	-0.00101459	0	-0.00031029	0	0	0
0.87	126.734	370.816	20.0719	0.951994	0	-0.315997	-0	0.708079	-0	0	0	0	-0.00101459	0	-0.00031029	0	0	0
0.88	107.46	258.512	15.533	0.932278	0	-0.313933	-0	1.40843	-0	0	0	0	-0.00101459	0	-0.00031029	0	0	0
0.89	86.6355	167.528	12.0598	0.913729	0	-0.311721	-0	1.68516	-0	0	0	0	-0.00101459	0	-0.00031029	0	0	0
0.9	62.6239	98.2154	9.53187	0.896473	0	-0.308118	-0	1.57077	-0	0	0	0	-0.00101459	0	-0.00031029	0	0	0
0.91	36.8563	50.5631	7.35871	0.877954	0	-0.300387	-0	1.15959	-0	0	0	0	-0.00101459	0	-0.00031029	0	0	0
0.92	16.1085	21.695	5.04034	0.849593	0	-0.291321	-0	0.569426	-0	0	0	0	-0.00101459	0	-0.00031029	0	0	0
0.93	0	0	0	-0.00101459	0	-0.00031029	0	0	0	0	0	0	-0.00101459	0	-0.00031029	0	0	0
0.94	0	0	0	-0.00101459	0	-0.00031029	0	0	0	0	0	0	-0.00101459	0	-0.00031029	0	0	0
0.95	0	0	0	-0.00101459	0	-0.00031029	0	0	0	0	0	0	-0.00101459	0	-0.00031029	0	0	0
0.96	0	0	0	-0.00101459	0	-0.00031029	0	0	0	0	0	0	-0.00101459	0	-0.00031029	0	0	0
0.97	0	0	0	-0.00101459	0	-0.00031029	0	0	0	0	0	0	-0.00101459	0	-0.00031029	0	0	0
0.98	0	0	0	-0.00101459	0	-0.00031029	0	0	0	0	0	0	-0.00101459	0	-0.00031029	0	0	0
0.99	0	0	0	-0.00101459	0	-0.00031029	0	0	0	-6.81356	15.4389	-3.62678	1.38591	0	-0.324042	-0	0.705728	-0
1	0	0	0	-0.00101459	0	-0.00031029	0	0	0	-23.338	58.6324	-8.17493	1.37701	0	-0.354304	-0	2.13964	-0
1.01	0	0	0	-0.00101459	0	-0.00031029	0	0	0	-47.9671	175.525	-12.4054	1.38133	0	-0.355774	-0	3.43085	-0
1.02	0	0	0	-0.00101459	0	-0.00031029	0	0	0	-59.8005	403.001	-12.8348	1.37931	0	-0.352753	-0	4.10005	-0
1.03	0	0	0	-0.00101459	0	-0.00031029	0	0	0	-57.7495	711.848	-7.05338	1.3713	0	-0.35071	-0	3.80508	-0
1.04	0	0	0	-0.00101459	0	-0.00031029	0	0	0	-76.0315	993.34	3.83651	1.36258	0	-0.350285	-0	2.53541	-0
1.05	0	0	0	-0.00101459	0	-0.00031029	0	0	0	-120.991	1164.3	15.3387	1.35498	0	-0.351359	-0	0.662293	-0
1.06	0	0	0	-0.00101459	0	-0.00031029	0	0	0	-167.771	1261.94	23.952	1.34536	0	-0.353106	0	-1.19787	0
1.07	0	0	0	-0.00101459	0	-0.00031029	0	0	0	-197.208	1373.27	29.2001	1.3315	0	-0.353444	0	-2.42762	0
1.08	0	0	0	-0.00101459	0	-0.00031029	0	0	0	-197.866	1516.02	30.5138	1.31516	0	-0.352185	0	-2.63252	0
1.09	0	0	0	-0.00101459	0	-0.00031029	0	0	0	-178.879	1649.88	28.4509	1.29795	0	-0.350699	0	-1.75012	0
1.1	0	0	0	-0.00101459	0	-0.00031029	0	0	0	-155.174	1744.11	26.1071	1.27987	0	-0.349368	0	-0.00363	0
1.11	0	0	0	-0.00101459	0	-0.00031029	0	0	0	-131.922	1800.92	25.0837	1.2614	0	-0.348314	-0	2.25554	-0
1.12	0	0	0	-0.00101459	0	-0.00031029	0	0	0	-109.988	1828.81	24.7372	1.2429	0	-0.347352	-0	4.70566	-0
1.13	0	0	0	-0.00101459	0	-0.00031029	0	0	0	-85.4363	1826.11	23.6019	1.22437	0	-0.346309	-0	7.13138	-0
1.14	0	0	0	-0.00101459	0	-0.00031029	0	0	0	-56.6168	1789.8	20.6919	1.20554	0	-0.345059	-0	9.41309	-0
1.15	0	0	0	-0.00101459	0	-0.00031029	0	0	0	-25.1124	1721.35	16.0582	1.18635	0	-0.343576	-0	11.4726	-0
1.16	0	0	0	-0.00101459	0	-0.00031029	0	0	0	7.88663	1625.97	10.1326	1.16661	0	-0.341787	-0	13.2219	-0
1.17	0	0	0	-0.00101459	0	-0.00031029	0	0	0	41.4858	1508.53	2.76625	1.14577	0	-0.339661	-0	14.5395	-0
1.18	0	0	0	-0.00101459	0	-0.00031029	0	0	0	74.4448	1370.75	-5.88565	1.12349	0	-0.337586	-0	15.2797	-0
1.19	0	0	0	-0.00101459	0	-0.00031029	0	0	0	102.286	1215.96	-13.6783	1.09992	0	-0.335536	-0	15.3174	-0
1.2	0	0	0	-0.00101459	0	-0.00031029	0	0	0	120.914	1050.33	-18.7875	1.07583	0	-0.333352	-0	14.6115	-0
1.21	0	0	0	-0.00101459	0	-0.00031029	0	0	0	129.669	880.647	-21.8292	1.05193	0	-0.331497	-0	13.2421	-0
1.22	0	0	0	-0.00101459	0	-0.00031029	0	0	0	129.554	715.076	-23.698	1.02856	0	-0.330282	-0	11.393	-0
1.23	0	0	0	-0.00101459	0	-0.00031029	0	0	0	121.02	562.034	-24.1589	1.00611	0	-0.329158	-0	9.29677	-0
1.24	0	0	0	-0.00101459	0	-0.00031029	0	0	0	106.596	426.482	-23.3538	0.985	0	-0.32784	-0	7.17894	-0
1.25	0	0	0	-0.00101459	0	-0.00031029	0	0	0	89.3598	309.485	-21.9517	0.964839	0	-0.327157	-0	5.2163	-0
1.26	0	0	0	-0.00101459	0	-0.00031029	0	0	0	70.9845	211.836	-19.6709	0.94591	0	-0.326653	-0	3.51878	-0
1.27	0	0	0	-0.00101459	0	-0.00031029	0	0	0	52.2325	134.058	-16.0143	0.929596	0	-0.323643	-0	2.1382	-0
1.28	0	0	0	-0.00101459	0	-0.00031029	0	0	0	34.3213	75.2268	-11.6152	0.913387	0	-0.317472	-0	1.08803	-0
1.29	0	0	0	-0.00101459	0	-0.00031029	0	0	0	18.4611	35.1113	-7.28579	0.887512	0	-0.309343	-0	0.354512	-0
1.3	0	0	0	-0.00101459	0	-0.00031029	0	0	0	6.93636	13.2347	-3.47504	0.839004	0	-0.281814	0	-0.100593	0
1.31	0	0	0	-0.00101459	0	-0.00031029	0	0	0	0	0	0	-0.00101459	0	-0.00031029	0	0	0
1.32	0	0	0	-0.00101459	0	-0.00031029	0	0	0	0	0	0	-0.00101459	0	-0.00031029	0	0	0
1.33	0	0	0	-0.00101459	0	-0.00031029	0	0	0	0	0	0	-0.00101459	0	-0.00031029	0	0	0
1.34	0	0	0	-0.00101459	0	-0.00031029	0	0	0	0	0	0	-0.00101459	0	-0.00031029	0	0	0
1.35	0	0	0	-0.00101459	0	-0.00031029	0	0	0	0	0	0	-0.00101459	0	-0.00031029	0	0	0
1.36	0	0	0	-0.00101459	0	-0.00031029	0	0	0	0	0	0	-0.00101459	0	-0.00031029	0	0	0
1.37	-3.66802	26.8724	-3.31825	1.32513	0	-0.271743	-0	0.238248	-0	0	0	0	-0.00101459	0	-0.00031029	0	0	0
1.38	-9.02448	96.3944	-6.06543	1.32864	0	-0.288269	-0	0.605547	-0	0	0	0	-0.00101459	0	-0.00031029	0	0	0
1.39	-8.52567	258.603	-7.47868	1.33513	0	-0.291598	-0	1.04844	-0	0	0	0	-0.00101459	0	-0.00031029	0	0	0
1.4	-4.0269	518.326	-6.17176	1.33314	0	-0.291208	-0	1.56672	-0	0	0	0	-0.00101459	0	-0.00031029	0	0	0
1.41	-20.8649	805.104	-5.06016	1.3282	0	-0.290256	-0	2.14748	-0	0	0	0	-0.00101459	0	-0.00031029	0	0	0
1.42	-68.4203	1025.16	-9.77087	1.32386	0	-0.289711	-0	2.7058	-0	0	0	0	-0.00101459	0	-0.00031029	0	0	0
1.43	-126.221	1150.76	-20.5558	1.31868	0	-0.289733	-0	3.04697	-0	0	0	0	-0.00101459	0	-0.00031029	0	0	0
1.44	-177.269	1242.43	-30.8814	1.3105	0	-0.289641	-0	2.92827	-0	0	0	0	-0.00101459	0	-0.00031029	0	0	0
1.45	-204.938	1356.08	-36.2173	1.29896	0	-0.289209	-0	2.1964	-0	0	0	0	-0.00101459	0	-0.00031029	0	0	0
1.46	-199.366	1479.85	-38.0262	1.2837	0	-0.289181	-0	0.879744	-0	0	0	0	-0.00101459	0	-0.00031029	0	0	0
1.47	-175.755	1579.1	-38.3012	1.26537	0	-0.289539	0	-0.835752	0	0	0	0	-0.00101459	0	-0.00031029	0	0	0
1.48	-145.722	1644.2	-36.8034	1.24535	0	-0.289791	0	-2.70209	0	0	0	0	-0.00101459	0	-0.00031029	0	0	0
1.49	-114.452	1682.88	-33.1952	1.22491	0	-0.290179	0	-4.49867	0	0	0	0	-0.00101459	0	-0.00031029	0	0	0
1.5	-82.6452	1700.37	-27.317	1.20426	0	-0.29088	0	-6.07954	0	0	0	0	-0.00101459	0	-0.00031029	0	0	0
1.51	-50.634	1697.76	-19.2921	1.1833	0	-0.291552	0	-7.37795	0	0	0	0	-0.00101459	0	-0.00031029	0	0	0
1.52	-17.2542	1672.32	-10.5658	1.16199	0	-0.292278	0	-8.3849	0	0	0	0	-0.00101459	0	-0.00031029	0	0	0
1.53	16.273	1621.47	-2.04628	1.14034	0	-0.293366	0	-9.11806	0	0	0	0	-0.00101459	0	-0.00031029	0	0	0
1.54	48.3941	1548.15	6.90077	1.11809	0	-0.294446	0	-9.58448	0	0	0	0	-0.00101459	0	-0.00031029	0	0	0
1.55	81.007	1454.24	15.479	1.09468	0	-0.29537	0	-9.75037	0	0	0	0	-0.00101459	0	-0.00031029	0	0	0
1.56	113.448	1338.19	21.744	1.06995	0	-0.296604	0	-9.54448	0	0	0	0	-0.00101459	0	-0.00031029	0	0	0
1.57	139.747	1202.8	25.839	1.0447	0	-0.297923	0	-8.89324	0	0	0	0	-0.00101459	0	-0.00031029	0	0	0
1.58	154.937	1053.23	28.286	1.02019	0	-0.298794	0	-7.76246	0	0	0	0	-0.00101459	0	-0.00031029	0	0	0
1.59	160.141	893.448	27.7577	0.996643	0	-0.299529	0	-6.19611	0	0	0	0	-0.00101459	0	-0.00031029	0	0	0
1.6	157.037	731.494	24.0143	0.973665	0	-0.300214	0	-4.3426	0	0	0	0	-0.00101459	0	-0.00031029	0	0	0
1.61	145.76	578.678	19.1321	0.951697	0	-0.300008	0	-2.43864	0	0	0	0	-0.00101459	0	-0.00031029	0	0	0
